# xmcd
# 
# Track frame offsets:
#   150
#   13180
#   28127
#   45900
#   66475
#   82825
#   98150
#   112787
#   128627
#   142415
#   154840
#   170047
#   186575
#   205630
#   219230
# 
# Disc length: 3122 seconds
# 
# Revision: 2
# Processed by: cddbd v1.5.2PL0 Copyright (c) Steve Scherf et al.
# Submitted via: Synapstar 1.0 
# 
DISCID=d00c300f
DTITLE=Various Artist - MM6079
DYEAR=1900
DGENRE=Country
TTITLE0=Sawyer Brown - This Time
TTITLE1=Patty Loveless - Here I Am
TTITLE2=Tracy Lawrence - I See It Now
TTITLE3=Mark Chesnutt - Almost Goodbye
TTITLE4=Gibson Miller Band, The - Red, White And Blue Collar
TTITLE5=Kathy Mattea - Listen To The Radio
TTITLE6=Confederate Railroad, The - Summer In Dixie
TTITLE7=Lisa Brokop - Take That
TTITLE8=Collin Raye - My Kind Of Girl
TTITLE9=Highway 101 - Walkin' Talkin' Cryin' Barely Beatin'
TTITLE10=Tracy Byrd - Watermelon Crawl
TTITLE11=Hal Ketchum - That's What I Get
TTITLE12=Marty Stuart - That's What Love's About
TTITLE13=Ricky Van Shelton - Wherever She Is
TTITLE14=John Anderson - Country 'til I Die
EXTD=MediaType: Karaoke CD+G Producer: Music Maestro
EXTT0=
EXTT1=
EXTT2=
EXTT3=
EXTT4=
EXTT5=
EXTT6=
EXTT7=
EXTT8=
EXTT9=
EXTT10=
EXTT11=
EXTT12=
EXTT13=
EXTT14=
PLAYORDER=
